<svg width="14" xmlns="http://www.w3.org/2000/svg" height="14" id="screenshot-465a6b20-2303-8045-8007-0b36a1f92cbe" viewBox="0 0 14 14" xmlns:xlink="http://www.w3.org/1999/xlink" fill="none" version="1.1"><g id="shape-465a6b20-2303-8045-8007-0b36a1f92cbe" rx="0" ry="0" style="fill: rgb(0, 0, 0);"><g id="shape-465a6b20-2303-8045-8007-0b36a1f9f4a2"><g class="fills" id="fills-465a6b20-2303-8045-8007-0b36a1f9f4a2"><path d="M7,3.650796998044825e-7C5.09912109375,3.650796998044825e-7,4.8604736328125,0.00805700570344925,4.11376953125,0.04217565804719925C3.36865234375,0.07611120492219925,2.8603515625,0.19442786276340485,2.414794921875,0.36749303340911865C1.95458984375,0.5464175939559937,1.56396484375,0.7857364416122437,1.174560546875,1.1749271154403687C0.785888671875,1.5640872716903687,0.5465087890625,1.9543460607528687,0.367431640625,2.414734363555908C0.194580078125,2.859985828399658,0.076416015625,3.368835926055908,0.042236328125,4.113922595977783C0.0081787109375,4.860474109649658,0,5.098877429962158,0,7.000000476837158C0,8.901123046875,0.0081787109375,9.1395263671875,0.042236328125,9.886077880859375C0.076416015625,10.63116455078125,0.194580078125,11.1400146484375,0.367431640625,11.58526611328125C0.5465087890625,12.045654296875,0.785888671875,12.4359130859375,1.174560546875,12.82513427734375C1.56396484375,13.21429443359375,1.95458984375,13.45361328125,2.414794921875,13.632537841796875C2.8603515625,13.805572509765625,3.36865234375,13.92388916015625,4.11376953125,13.95782470703125C4.8604736328125,13.991943359375,5.09912109375,14,7,14C8.90087890625,14,9.1395263671875,13.991943359375,9.88623046875,13.95782470703125C10.63134765625,13.92388916015625,11.1396484375,13.805572509765625,11.585205078125,13.632537841796875C12.04541015625,13.45361328125,12.43603515625,13.21429443359375,12.825439453125,12.82513427734375C13.214111328125,12.4359130859375,13.4534912109375,12.045654296875,13.632568359375,11.58526611328125C13.805419921875,11.1400146484375,13.923583984375,10.63116455078125,13.957763671875,9.886077880859375C13.9918212890625,9.1395263671875,14,8.901123046875,14,7.000000476837158C14,5.098877429962158,13.9918212890625,4.860474109649658,13.957763671875,4.113922595977783C13.923583984375,3.368835926055908,13.805419921875,2.859985828399658,13.632568359375,2.414734363555908C13.4534912109375,1.9543460607528687,13.214111328125,1.5640872716903687,12.825439453125,1.1749271154403687C12.43603515625,0.7857364416122437,12.04541015625,0.5464175939559937,11.585205078125,0.36749303340911865C11.1396484375,0.19442786276340485,10.63134765625,0.07611120492219925,9.88623046875,0.04217565804719925C9.1395263671875,0.00805700570344925,8.90087890625,3.650796998044825e-7,7,3.650796998044825e-7ZM7,1.2612918615341187C8.8692626953125,1.2612918615341187,9.09033203125,1.2684329748153687,9.82861328125,1.3021243810653687C10.5107421875,1.3331302404403687,10.881591796875,1.4472049474716187,11.1285400390625,1.5431522130966187C11.4552001953125,1.6701053380966187,11.688232421875,1.8217777013778687,11.933349609375,2.066711902618408C12.17822265625,2.311707019805908,12.330078125,2.544800281524658,12.456787109375,2.871582508087158C12.552734375,3.118164539337158,12.6668701171875,3.488892078399658,12.6978759765625,4.171326160430908C12.731689453125,4.909515857696533,12.73876953125,5.130890369415283,12.73876953125,7.000000476837158C12.73876953125,8.869110107421875,12.731689453125,9.090484619140625,12.6978759765625,9.82867431640625C12.6668701171875,10.5111083984375,12.552734375,10.8818359375,12.456787109375,11.12841796875C12.330078125,11.4552001953125,12.17822265625,11.68829345703125,11.933349609375,11.93328857421875C11.688232421875,12.17822265625,11.4552001953125,12.32989501953125,11.1285400390625,12.45684814453125C10.881591796875,12.55279541015625,10.5107421875,12.6668701171875,9.82861328125,12.6978759765625C9.0904541015625,12.7315673828125,8.869384765625,12.73876953125,7,12.73876953125C5.130615234375,12.73876953125,4.9095458984375,12.7315673828125,4.17138671875,12.6978759765625C3.4892578125,12.6668701171875,3.118408203125,12.55279541015625,2.8714599609375,12.45684814453125C2.5447998046875,12.32989501953125,2.311767578125,12.17822265625,2.0665283203125,11.93328857421875C1.82177734375,11.68829345703125,1.669921875,11.4552001953125,1.543212890625,11.12841796875C1.447265625,10.8818359375,1.3331298828125,10.5111083984375,1.3021240234375,9.82867431640625C1.268310546875,9.090484619140625,1.26123046875,8.869110107421875,1.26123046875,7.000000476837158C1.26123046875,5.130890369415283,1.268310546875,4.909515857696533,1.3021240234375,4.171326160430908C1.3331298828125,3.488892078399658,1.447265625,3.118164539337158,1.543212890625,2.871582508087158C1.669921875,2.544800281524658,1.82177734375,2.311707019805908,2.0665283203125,2.066711902618408C2.311767578125,1.8217777013778687,2.5447998046875,1.6701053380966187,2.8714599609375,1.5431522130966187C3.118408203125,1.4472049474716187,3.4892578125,1.3331302404403687,4.17138671875,1.3021243810653687C4.90966796875,1.2684329748153687,5.1307373046875,1.2612918615341187,7,1.2612918615341187Z" style="fill-rule: nonzero; clip-rule: evenodd; stroke-linejoin: round; stroke-miterlimit: 2; fill: rgb(255, 255, 255); fill-opacity: 1;"/></g></g><g id="shape-465a6b20-2303-8045-8007-0b36a1fa271c"><g class="fills" id="fills-465a6b20-2303-8045-8007-0b36a1fa271c"><path d="M7,9.33331298828125C5.71142578125,9.33331298828125,4.666748046875,8.28863525390625,4.666748046875,7.000000476837158C4.666748046875,5.711365222930908,5.71142578125,4.666687488555908,7,4.666687488555908C8.28857421875,4.666687488555908,9.333251953125,5.711365222930908,9.333251953125,7.000000476837158C9.333251953125,8.28863525390625,8.28857421875,9.33331298828125,7,9.33331298828125ZM7,3.405457019805908C5.0146484375,3.405457019805908,3.405517578125,5.014709949493408,3.405517578125,7.000000476837158C3.405517578125,8.98529052734375,5.0146484375,10.59454345703125,7,10.59454345703125C8.9853515625,10.59454345703125,10.594482421875,8.98529052734375,10.594482421875,7.000000476837158C10.594482421875,5.014709949493408,8.9853515625,3.405457019805908,7,3.405457019805908Z" style="fill-rule: nonzero; clip-rule: evenodd; stroke-linejoin: round; stroke-miterlimit: 2; fill: rgb(255, 255, 255); fill-opacity: 1;"/></g></g><g id="shape-465a6b20-2303-8045-8007-0b36a1fa482b"><g class="fills" id="fills-465a6b20-2303-8045-8007-0b36a1fa482b"><path d="M11.57666015625,3.263367176055908C11.57666015625,3.727295398712158,11.2005615234375,4.103332996368408,10.736328125,4.103332996368408C10.272705078125,4.103332996368408,9.896728515625,3.727295398712158,9.896728515625,3.263367176055908C9.896728515625,2.799438953399658,10.272705078125,2.423401355743408,10.736328125,2.423401355743408C11.2005615234375,2.423401355743408,11.57666015625,2.799438953399658,11.57666015625,3.263367176055908Z" style="fill-rule: nonzero; clip-rule: evenodd; stroke-linejoin: round; stroke-miterlimit: 2; fill: rgb(255, 255, 255); fill-opacity: 1;"/></g></g></g></svg>