<svg width="15" xmlns="http://www.w3.org/2000/svg" height="12.188" id="screenshot-465a6b20-2303-8045-8007-0b36836e9a46" viewBox="-262 -333 15 12.188" xmlns:xlink="http://www.w3.org/1999/xlink" fill="none" version="1.1"><g id="shape-465a6b20-2303-8045-8007-0b36836e9a46"><g class="fills" id="fills-465a6b20-2303-8045-8007-0b36836e9a46"><path d="M-257.2828369140625,-320.811767578125C-251.6224365234375,-320.811767578125,-248.5263671875,-325.5013427734375,-248.5263671875,-329.5681457519531C-248.5263671875,-329.7013244628906,-248.5263671875,-329.83392333984375,-248.535400390625,-329.9659423828125C-247.93310546875,-330.401611328125,-247.4132080078125,-330.9410095214844,-247,-331.5589294433594C-247.5616455078125,-331.31005859375,-248.157470703125,-331.1468811035156,-248.767578125,-331.0747375488281C-248.125244140625,-331.459228515625,-247.644287109375,-332.064453125,-247.41455078125,-332.7769470214844C-248.0186767578125,-332.41851806640625,-248.6796875,-332.16583251953125,-249.3687744140625,-332.0299377441406C-249.95068359375,-332.6487121582031,-250.763427734375,-333,-251.61279296875,-333C-253.3026123046875,-333,-254.693115234375,-331.6094665527344,-254.693115234375,-329.91961669921875C-254.693115234375,-329.6851806640625,-254.6663818359375,-329.45147705078125,-254.6134033203125,-329.22314453125C-257.0865478515625,-329.34710693359375,-259.39404296875,-330.5169372558594,-260.9560546875,-332.43853759765625C-261.7681884765625,-331.0403137207031,-261.3480224609375,-329.2283020019531,-260.003173828125,-328.3303527832031C-260.492919921875,-328.3448486328125,-260.9720458984375,-328.47698974609375,-261.4000244140625,-328.7155456542969L-261.4000244140625,-328.6765441894531C-261.3995361328125,-327.2171630859375,-260.361572265625,-325.9486999511719,-258.9310302734375,-325.65972900390625C-259.384033203125,-325.53619384765625,-259.8594970703125,-325.5181579589844,-260.320556640625,-325.60693359375C-259.91845703125,-324.3564147949219,-258.7587890625,-323.4944152832031,-257.4454345703125,-323.4697265625C-258.534912109375,-322.61346435546875,-259.881591796875,-322.14837646484375,-261.2674560546875,-322.1497497558594C-261.51220703125,-322.15020751953125,-261.7568359375,-322.1650390625,-262,-322.19415283203125C-260.5927734375,-321.29107666015625,-258.954833984375,-320.8119201660156,-257.2828369140625,-320.81414794921875" style="fill-rule: nonzero; clip-rule: evenodd; stroke-linejoin: round; stroke-miterlimit: 2; fill: rgb(255, 255, 255); fill-opacity: 1;"/></g></g></svg>